<svg width="224" height="170" viewBox="0 0 224 170" fill="none" xmlns="http://www.w3.org/2000/svg">
<path d="M224 0H0V169.211H224V0Z" fill="black"/>
<path d="M56 70.5044C56 62.7184 62.2696 56.4035 70 56.4035H97.9208C105.695 56.4035 112 50.0532 112 42.2228V28.2017H56V42.3026C56 50.0887 49.7304 56.4035 42 56.4035H28V84.6054H56V70.5044V70.5044Z" fill="white"/>
<path d="M56 84.6055V98.7064C56 106.492 49.7304 112.807 42 112.807H28V141.009H56V126.908C56 119.122 62.2696 112.807 70 112.807H97.9208C105.695 112.807 112 106.457 112 98.6266V84.6055H56V84.6055Z" fill="white"/>
<path d="M168 98.7064C168 106.492 161.73 112.807 154 112.807H126.079C118.305 112.807 112 119.158 112 126.988V141.009H168V126.908C168 119.122 174.27 112.807 182 112.807H196V84.6055H168V98.7064V98.7064Z" fill="white"/>
<path d="M168 70.5044C168 62.7184 174.27 56.4035 182 56.4035H196V28.2017H168V42.3026C168 50.0887 161.73 56.4035 154 56.4035H126.079C118.305 56.4035 112 62.7538 112 70.5842V84.6054H168V70.5044V70.5044Z" fill="white"/>
</svg>
