<svg width="664" height="128" viewBox="0 0 664 128" fill="none" xmlns="http://www.w3.org/2000/svg">
<g clip-path="url(#clip0_9751_13392)">
<path d="M52.9516 106.878H42.8955V86.3961H52.9516C70.6211 86.3961 85.0073 71.7615 85.0073 53.751C85.0073 35.7404 70.6369 21.1058 52.9516 21.1058H42.8955V0.640015H52.9516C81.724 0.640015 105.119 24.4656 105.119 53.751C105.119 83.0363 81.724 106.862 52.9674 106.862L52.9516 106.878Z" fill="#B9E5FF"/>
<path d="M20.9119 63.9919H0.799805V127.344H20.9119V63.9919Z" fill="#B9E5FF"/>
<path d="M397.665 63.9919H377.553V127.344H397.665V63.9919Z" fill="#B9E5FF"/>
<path d="M441.347 0.640015H333.871V21.122H441.347V0.640015Z" fill="#B9E5FF"/>
<path d="M575.836 0.639984H555.724V63.9919H575.836V0.639984Z" fill="#B9E5FF"/>
<path d="M663.2 106.523H555.724V127.005H663.2V106.523Z" fill="#B9E5FF"/>
<path d="M219.496 63.9919H199.384V53.751C199.384 35.7566 185.013 21.1058 167.328 21.1058C149.643 21.1058 135.272 35.7404 135.272 53.751V63.9919H115.16V53.751C115.176 24.4656 138.571 0.640015 167.328 0.640015C196.085 0.640015 219.48 24.4656 219.48 53.751V63.9919H219.496Z" fill="#B9E5FF"/>
<path d="M115.177 63.9919H135.289V74.2329C135.289 92.2273 149.659 106.878 167.345 106.878C185.03 106.878 199.4 92.2434 199.4 74.2329V63.9919H219.512V74.2329C219.512 103.518 196.117 127.344 167.36 127.344C138.604 127.344 115.208 103.518 115.208 74.2329V63.9919H115.177Z" fill="#B9E5FF"/>
<path d="M545.667 63.9919H525.555V53.751C525.555 35.7566 511.184 21.1058 493.499 21.1058C475.814 21.1058 461.443 35.7404 461.443 53.751V63.9919H441.331V53.751C441.347 24.4656 464.742 0.640015 493.499 0.640015C522.255 0.640015 545.651 24.4656 545.651 53.751V63.9919H545.667Z" fill="#B9E5FF"/>
<path d="M545.667 127.36H525.555V117.119C525.555 99.1246 511.184 84.4739 493.499 84.4739C475.814 84.4739 461.443 99.1085 461.443 117.119V127.36H441.331V117.119C441.331 87.8337 464.726 64.0081 493.483 64.0081C522.24 64.0081 545.635 87.8337 545.635 117.119V127.36H545.667Z" fill="#B9E5FF"/>
<path d="M249.664 63.9919H229.552V127.344H249.664V63.9919Z" fill="#B9E5FF"/>
<path d="M271.647 74.2329V63.9919H291.76V74.2329C291.76 92.2273 306.13 106.878 323.815 106.878H333.871V127.36H323.815C295.059 127.36 271.663 103.534 271.663 74.249L271.647 74.2329Z" fill="#B9E5FF"/>
<path d="M333.871 53.751V63.9919H313.759V53.751C313.759 35.7566 299.389 21.1058 281.704 21.1058H271.647V0.640015H281.704C310.46 0.640015 333.856 24.4656 333.856 53.751H333.871Z" fill="#B9E5FF"/>
</g>
<defs>
<clipPath id="clip0_9751_13392">
<rect width="662.4" height="126.72" fill="white" transform="translate(0.799805 0.640015)"/>
</clipPath>
</defs>
</svg>
